<svg width="600" height="600" viewBox="0 0 600 600" fill="none" xmlns="http://www.w3.org/2000/svg">
<path d="M6.98084 8H1.01916C0.456294 8 0 7.54371 0 6.98084V1.01916C0 0.456295 0.456294 0 1.01916 0H6.98084C7.54371 0 8 0.456295 8 1.01916V6.98084C8 7.54371 7.54371 8 6.98084 8Z" fill="#2D131C" fill-opacity="0.1"/>
<path d="M22.9808 8H17.0192C16.4563 8 16 7.54371 16 6.98084V1.01916C16 0.456295 16.4563 0 17.0192 0H22.9808C23.5437 0 24 0.456295 24 1.01916V6.98084C24 7.54371 23.5437 8 22.9808 8Z" fill="#2D131C" fill-opacity="0.1"/>
<path d="M38.9808 8H33.0192C32.4563 8 32 7.54371 32 6.98084V1.01916C32 0.456295 32.4563 0 33.0192 0H38.9808C39.5437 0 40 0.456295 40 1.01916V6.98084C40 7.54371 39.5437 8 38.9808 8Z" fill="#2D131C" fill-opacity="0.1"/>
</svg>
