<svg id="Layer_1" data-name="Layer 1" xmlns="http://www.w3.org/2000/svg" width="23.56" height="16.58" viewBox="0 0 23.56 16.58"><defs><style>.cls-1{fill:none;}</style></defs><polygon class="cls-1" points="20.57 14.58 7.5 14.58 14.03 8.05 20.57 14.58"/><polygon class="cls-1" points="21.56 2 21.56 12.74 14.03 5.22 4.67 14.58 2 14.58 2 2 21.56 2"/><path d="M22.46,4h-21A1.29,1.29,0,0,0,.19,5.33v14a1.29,1.29,0,0,0,1.29,1.29h21a1.29,1.29,0,0,0,1.29-1.29v-14A1.29,1.29,0,0,0,22.46,4ZM7.69,18.62l6.53-6.53,6.54,6.53Zm6.53-9.36L4.86,18.62H2.19V6H21.75V16.78Z" transform="translate(-0.19 -4.04)"/><path d="M6.71,8a2,2,0,1,0,2,2,2,2,0,0,0-2-2Z" transform="translate(-0.19 -4.04)"/></svg>