<?xml version="1.0" encoding="UTF-8"?><svg xmlns="http://www.w3.org/2000/svg" xmlns:xlink="http://www.w3.org/1999/xlink" viewBox="0 0 309 204"><defs><linearGradient id="c" x1="127.08" y1="99" x2="190.87" y2="101.43" gradientUnits="userSpaceOnUse"><stop offset="0" stop-color="#fff"/><stop offset=".98" stop-color="#3452ff"/></linearGradient></defs><g id="a"><rect width="309" height="204" fill="#3452ff"/></g><g id="b"><path d="M131.78,100.08c0,1.05,1.55,2.88,5.14,4.68,4.65,2.32,11.24,3.72,18.38,3.72s13.73-1.39,18.38-3.72c3.59-1.8,5.14-3.63,5.14-4.68v-7.3c-5.54,3.43-14.02,5.62-23.52,5.62s-17.98-2.19-23.52-5.62v7.3ZM178.83,109.58c-5.54,3.43-14.02,5.62-23.52,5.62s-17.98-2.19-23.52-5.62v7.3c0,1.05,1.55,2.88,5.14,4.68,4.65,2.32,11.24,3.72,18.38,3.72s13.73-1.39,18.38-3.72c3.59-1.8,5.14-3.63,5.14-4.68v-7.3ZM125.06,116.88v-33.6c0-8.35,13.54-15.12,30.24-15.12s30.24,6.77,30.24,15.12v33.6c0,8.35-13.54,15.12-30.24,15.12s-30.24-6.77-30.24-15.12ZM155.31,91.68c7.13,0,13.73-1.39,18.38-3.72,3.59-1.8,5.14-3.63,5.14-4.68s-1.55-2.88-5.14-4.68c-4.65-2.32-11.24-3.72-18.38-3.72s-13.73,1.39-18.38,3.72c-3.59,1.8-5.14,3.63-5.14,4.68s1.55,2.88,5.14,4.68c4.65,2.32,11.24,3.72,18.38,3.72Z" fill="url(#c)"/></g></svg>